<svg width="24" height="24" viewBox="0 0 24 24" fill="none" xmlns="http://www.w3.org/2000/svg">
<g clip-path="url(#clip0_27_7296)">
<path d="M0 6.48C0 4.16426 0 3.00639 0.464937 2.12828C0.840138 1.41965 1.41965 0.840138 2.12828 0.464937C3.00639 0 4.16426 0 6.48 0H17.52C19.8357 0 20.9936 0 21.8717 0.464937C22.5803 0.840138 23.1599 1.41965 23.5351 2.12828C24 3.00639 24 4.16426 24 6.48V17.52C24 19.8357 24 20.9936 23.5351 21.8717C23.1599 22.5803 22.5803 23.1599 21.8717 23.5351C20.9936 24 19.8357 24 17.52 24H6.48C4.16426 24 3.00639 24 2.12828 23.5351C1.41965 23.1599 0.840138 22.5803 0.464937 21.8717C0 20.9936 0 19.8357 0 17.52V6.48Z" fill="url(#paint0_linear_27_7296)"/>
<path fill-rule="evenodd" clip-rule="evenodd" d="M20.49 12.8697C21.17 12.4687 21.17 11.5313 20.49 11.1303L17.6674 9.46632C17.3614 9.28595 17.1705 8.97323 17.1579 8.63224L17.0426 5.49021C17.0149 4.73377 16.1601 4.26601 15.4538 4.62077L12.5073 6.10073C12.19 6.26007 11.81 6.26007 11.4927 6.10073L8.54623 4.62077C7.8399 4.26601 6.98524 4.73377 6.95738 5.49021L6.8421 8.63224C6.82947 8.97323 6.63857 9.28595 6.33257 9.46632L3.51002 11.1303C2.82999 11.5313 2.82999 12.4687 3.51002 12.8697L6.33257 14.5337C6.63857 14.7141 6.82947 15.0268 6.8421 15.3678L6.95738 18.5098C6.98524 19.2662 7.8399 19.734 8.54623 19.3792L11.4927 17.8993C11.81 17.7399 12.19 17.7399 12.5073 17.8993L15.4538 19.3792C16.1601 19.734 17.0148 19.2662 17.0426 18.5098L17.1579 15.3678C17.1705 15.0268 17.3614 14.7141 17.6674 14.5337L20.49 12.8697ZM17.3308 12.4191C17.6685 12.2183 17.6685 11.7525 17.3308 11.5516L15.3892 10.3967C15.2372 10.3063 15.1424 10.1504 15.1363 9.98058L15.0571 7.80427C15.0432 7.42516 14.6142 7.19126 14.2609 7.3703L12.2498 8.38947C12.0902 8.47034 11.8984 8.47034 11.739 8.38947L9.72784 7.3703C9.37458 7.19126 8.94535 7.42516 8.9315 7.80427L8.85241 9.98058C8.84618 10.1504 8.75151 10.3063 8.59954 10.3967L6.65778 11.5516C6.32027 11.7525 6.32028 12.2183 6.65795 12.4191L8.59954 13.574C8.75151 13.6644 8.84618 13.8203 8.85241 13.9901L8.9315 16.1664C8.94535 16.5455 9.37458 16.7794 9.72784 16.6004L11.739 15.5812C11.8984 15.5004 12.0902 15.5004 12.2498 15.5812L14.2609 16.6004C14.6142 16.7794 15.0432 16.5455 15.0571 16.1664L15.1363 13.9901C15.1424 13.8203 15.2372 13.6644 15.3892 13.574L17.3308 12.4191Z" fill="white"/>
</g>
<defs>
<linearGradient id="paint0_linear_27_7296" x1="0.75" y1="5.02914e-08" x2="23.25" y2="24" gradientUnits="userSpaceOnUse">
<stop offset="0.505" stop-color="#FF558F"/>
<stop offset="1" stop-color="#FDAA87"/>
</linearGradient>
<clipPath id="clip0_27_7296">
<rect width="24" height="24" fill="white"/>
</clipPath>
</defs>
</svg>
